<?xml version="1.0" encoding="utf-8" standalone="no"?>
<!DOCTYPE svg PUBLIC "-//W3C//DTD SVG 1.1//EN"
  "http://www.w3.org/Graphics/SVG/1.1/DTD/svg11.dtd">
<svg xmlns:xlink="http://www.w3.org/1999/xlink" width="576pt" height="432pt" viewBox="0 0 576 432" xmlns="http://www.w3.org/2000/svg" version="1.1">
 <metadata>
  <rdf:RDF xmlns:dc="http://purl.org/dc/elements/1.1/" xmlns:cc="http://creativecommons.org/ns#" xmlns:rdf="http://www.w3.org/1999/02/22-rdf-syntax-ns#">
   <cc:Work>
    <dc:type rdf:resource="http://purl.org/dc/dcmitype/StillImage"/>
    <dc:date>2025-11-24T22:35:05.330043</dc:date>
    <dc:format>image/svg+xml</dc:format>
    <dc:creator>
     <cc:Agent>
      <dc:title>Matplotlib v3.6.0, https://matplotlib.org/</dc:title>
     </cc:Agent>
    </dc:creator>
   </cc:Work>
  </rdf:RDF>
 </metadata>
 <defs>
  <style type="text/css">*{stroke-linejoin: round; stroke-linecap: butt}</style>
 </defs>
 <g id="figure_1">
  <g id="patch_1">
   <path d="M 0 432 
L 576 432 
L 576 0 
L 0 0 
z
" style="fill: #ffffff"/>
  </g>
  <g id="axes_1">
   <g id="patch_2">
    <path d="M 81.83 350.512 
L 535.989135 350.512 
L 535.989135 10.8 
L 81.83 10.8 
z
" style="fill: #ffffff"/>
   </g>
   <g id="PolyCollection_1">
    <path d="M 81.830066 10.8 
L 81.830066 350.511991 
L 82.968292 350.349704 
L 84.106519 350.18719 
L 85.244746 350.024446 
L 86.382973 349.861473 
L 87.5212 349.698267 
L 88.659427 349.534828 
L 89.797654 349.371155 
L 90.93588 349.207247 
L 92.074107 349.043101 
L 93.212334 348.878716 
L 94.350561 348.714092 
L 95.488788 348.549227 
L 96.627015 348.384119 
L 97.765242 348.218767 
L 98.903468 348.053169 
L 100.041695 347.887325 
L 101.179922 347.721232 
L 102.318149 347.554889 
L 103.456376 347.388295 
L 104.594603 347.221449 
L 105.73283 347.054348 
L 106.871056 346.886991 
L 108.009283 346.719377 
L 109.14751 346.551505 
L 110.285737 346.383372 
L 111.423964 346.214977 
L 112.562191 346.046318 
L 113.700418 345.877395 
L 114.838645 345.708205 
L 115.976871 345.538747 
L 117.115098 345.369019 
L 118.253325 345.199019 
L 119.391552 345.028747 
L 120.529779 344.8582 
L 121.668006 344.687376 
L 122.806233 344.516274 
L 123.944459 344.344893 
L 125.082686 344.17323 
L 126.220913 344.001283 
L 127.35914 343.829052 
L 128.497367 343.656534 
L 129.635594 343.483728 
L 130.773821 343.310631 
L 131.912047 343.137243 
L 133.050274 342.96356 
L 134.188501 342.789582 
L 135.326728 342.615306 
L 136.464955 342.440731 
L 137.603182 342.265855 
L 138.741409 342.090675 
L 139.879635 341.915191 
L 141.017862 341.739399 
L 142.156089 341.563298 
L 143.294316 341.386887 
L 144.432543 341.210163 
L 145.57077 341.033124 
L 146.708997 340.855768 
L 147.847224 340.678093 
L 148.98545 340.500098 
L 150.123677 340.321779 
L 151.261904 340.143136 
L 152.400131 339.964165 
L 153.538358 339.784865 
L 154.676585 339.605234 
L 155.814812 339.425269 
L 156.953038 339.244968 
L 158.091265 339.06433 
L 159.229492 338.883351 
L 160.367719 338.70203 
L 161.505946 338.520365 
L 162.644173 338.338353 
L 163.7824 338.155991 
L 164.920626 337.973278 
L 166.058853 337.790212 
L 167.19708 337.606789 
L 168.335307 337.423007 
L 169.473534 337.238865 
L 170.611761 337.05436 
L 171.749988 336.869488 
L 172.888214 336.684249 
L 174.026441 336.498639 
L 175.164668 336.312655 
L 176.302895 336.126296 
L 177.441122 335.939558 
L 178.579349 335.75244 
L 179.717576 335.564938 
L 180.855802 335.377049 
L 181.994029 335.188772 
L 183.132256 335.000104 
L 184.270483 334.811041 
L 185.40871 334.621582 
L 186.546937 334.431722 
L 187.685164 334.241461 
L 188.823391 334.050794 
L 189.961617 333.859718 
L 191.099844 333.668232 
L 192.238071 333.476332 
L 193.376298 333.284015 
L 194.514525 333.091279 
L 195.652752 332.898119 
L 196.790979 332.704534 
L 197.929205 332.51052 
L 199.067432 332.316074 
L 200.205659 332.121193 
L 201.343886 331.925874 
L 202.482113 331.730113 
L 203.62034 331.533909 
L 204.758567 331.337256 
L 205.896793 331.140152 
L 207.03502 330.942594 
L 208.173247 330.744579 
L 209.311474 330.546102 
L 210.449701 330.347161 
L 211.587928 330.147752 
L 212.726155 329.947872 
L 213.864381 329.747517 
L 215.002608 329.546684 
L 216.140835 329.345369 
L 217.279062 329.143568 
L 218.417289 328.941278 
L 219.555516 328.738494 
L 220.693743 328.535215 
L 221.83197 328.331435 
L 222.970196 328.12715 
L 224.108423 327.922357 
L 225.24665 327.717053 
L 226.384877 327.511232 
L 227.523104 327.304891 
L 228.661331 327.098027 
L 229.799558 326.890634 
L 230.937784 326.682709 
L 232.076011 326.474248 
L 233.214238 326.265246 
L 234.352465 326.055699 
L 235.490692 325.845603 
L 236.628919 325.634954 
L 237.767146 325.423747 
L 238.905372 325.211977 
L 240.043599 324.999641 
L 241.181826 324.786733 
L 242.320053 324.573249 
L 243.45828 324.359184 
L 244.596507 324.144534 
L 245.734734 323.929294 
L 246.87296 323.713458 
L 248.011187 323.497023 
L 249.149414 323.279983 
L 250.287641 323.062333 
L 251.425868 322.844068 
L 252.564095 322.625183 
L 253.702322 322.405673 
L 254.840549 322.185533 
L 255.978775 321.964757 
L 257.117002 321.743339 
L 258.255229 321.521275 
L 259.393456 321.29856 
L 260.531683 321.075186 
L 261.66991 320.851149 
L 262.808137 320.626444 
L 263.946363 320.401063 
L 265.08459 320.175002 
L 266.222817 319.948255 
L 267.361044 319.720815 
L 268.499271 319.492676 
L 269.637498 319.263833 
L 270.775725 319.034279 
L 271.913951 318.804008 
L 273.052178 318.573013 
L 274.190405 318.341288 
L 275.328632 318.108826 
L 276.466859 317.875621 
L 277.605086 317.641667 
L 278.743313 317.406955 
L 279.881539 317.17148 
L 281.019766 316.935234 
L 282.157993 316.69821 
L 283.29622 316.460402 
L 284.434447 316.221801 
L 285.572674 315.982401 
L 286.710901 315.742194 
L 287.849128 315.501172 
L 288.987354 315.259327 
L 290.125581 315.016653 
L 291.263808 314.773141 
L 292.402035 314.528783 
L 293.540262 314.283571 
L 294.678489 314.037497 
L 295.816716 313.790552 
L 296.954942 313.542728 
L 298.093169 313.294017 
L 299.231396 313.044409 
L 300.369623 312.793896 
L 301.50785 312.54247 
L 302.646077 312.29012 
L 303.784304 312.036838 
L 304.92253 311.782614 
L 306.060757 311.527439 
L 307.198984 311.271303 
L 308.337211 311.014197 
L 309.475438 310.756111 
L 310.613665 310.497034 
L 311.751892 310.236957 
L 312.890118 309.975868 
L 314.028345 309.713758 
L 315.166572 309.450616 
L 316.304799 309.186432 
L 317.443026 308.921193 
L 318.581253 308.654889 
L 319.71948 308.387509 
L 320.857706 308.11904 
L 321.995933 307.849472 
L 323.13416 307.578793 
L 324.272387 307.30699 
L 325.410614 307.034051 
L 326.548841 306.759963 
L 327.687068 306.484715 
L 328.825295 306.208293 
L 329.963521 305.930684 
L 331.101748 305.651875 
L 332.239975 305.371851 
L 333.378202 305.090601 
L 334.516429 304.808109 
L 335.654656 304.524361 
L 336.792883 304.239344 
L 337.931109 303.953041 
L 339.069336 303.665439 
L 340.207563 303.376522 
L 341.34579 303.086275 
L 342.484017 302.794682 
L 343.622244 302.501726 
L 344.760471 302.207392 
L 345.898697 301.911664 
L 347.036924 301.614523 
L 348.175151 301.315954 
L 349.313378 301.015938 
L 350.451605 300.714459 
L 351.589832 300.411496 
L 352.728059 300.107034 
L 353.866285 299.801051 
L 355.004512 299.49353 
L 356.142739 299.184451 
L 357.280966 298.873794 
L 358.419193 298.561539 
L 359.55742 298.247664 
L 360.695647 297.93215 
L 361.833874 297.614975 
L 362.9721 297.296117 
L 364.110327 296.975553 
L 365.248554 296.653261 
L 366.386781 296.329218 
L 367.525008 296.0034 
L 368.663235 295.675783 
L 369.801462 295.346342 
L 370.939688 295.015053 
L 372.077915 294.68189 
L 373.216142 294.346827 
L 374.354369 294.009836 
L 375.492596 293.670892 
L 376.630823 293.329965 
L 377.76905 292.987028 
L 378.907276 292.642052 
L 380.045503 292.295007 
L 381.18373 291.945862 
L 382.321957 291.594587 
L 383.460184 291.241151 
L 384.598411 290.88552 
L 385.736638 290.527663 
L 386.874864 290.167544 
L 388.013091 289.80513 
L 389.151318 289.440386 
L 390.289545 289.073274 
L 391.427772 288.703759 
L 392.565999 288.331802 
L 393.704226 287.957364 
L 394.842453 287.580406 
L 395.980679 287.200888 
L 397.118906 286.818767 
L 398.257133 286.434001 
L 399.39536 286.046546 
L 400.533587 285.656358 
L 401.671814 285.263391 
L 402.810041 284.867597 
L 403.948267 284.468928 
L 405.086494 284.067336 
L 406.224721 283.662769 
L 407.362948 283.255175 
L 408.501175 282.8445 
L 409.639402 282.430691 
L 410.777629 282.013689 
L 411.915855 281.593439 
L 413.054082 281.169879 
L 414.192309 280.74295 
L 415.330536 280.312587 
L 416.468763 279.878728 
L 417.60699 279.441305 
L 418.745217 279.000249 
L 419.883443 278.555492 
L 421.02167 278.10696 
L 422.159897 277.654578 
L 423.298124 277.198271 
L 424.436351 276.737959 
L 425.574578 276.273561 
L 426.712805 275.804993 
L 427.851032 275.332169 
L 428.989258 274.854998 
L 430.127485 274.37339 
L 431.265712 273.887249 
L 432.403939 273.396477 
L 433.542166 272.900973 
L 434.680393 272.400631 
L 435.81862 271.895345 
L 436.956846 271.385002 
L 438.095073 270.869486 
L 439.2333 270.348678 
L 440.371527 269.822453 
L 441.509754 269.290684 
L 442.647981 268.753238 
L 443.786208 268.209976 
L 444.924434 267.660757 
L 446.062661 267.105431 
L 447.200888 266.543844 
L 448.339115 265.975839 
L 449.477342 265.401247 
L 450.615569 264.819898 
L 451.753796 264.231611 
L 452.892022 263.6362 
L 454.030249 263.033472 
L 455.168476 262.423223 
L 456.306703 261.805243 
L 457.44493 261.179313 
L 458.583157 260.545202 
L 459.721384 259.902673 
L 460.85961 259.251474 
L 461.997837 258.591344 
L 463.136064 257.92201 
L 464.274291 257.243186 
L 465.412518 256.554571 
L 466.550745 255.855852 
L 467.688972 255.146699 
L 468.827199 254.426765 
L 469.965425 253.695686 
L 471.103652 252.953081 
L 472.241879 252.198547 
L 473.380106 251.431658 
L 474.518333 250.651968 
L 475.65656 249.859004 
L 476.794787 249.052268 
L 477.933013 248.231232 
L 479.07124 247.395336 
L 480.209467 246.543988 
L 481.347694 245.67656 
L 482.485921 244.792384 
L 483.624148 243.890748 
L 484.762375 242.970895 
L 485.900601 242.032018 
L 487.038828 241.073254 
L 488.177055 240.093678 
L 489.315282 239.092302 
L 490.453509 238.068063 
L 491.591736 237.019818 
L 492.729963 235.946338 
L 493.868189 234.846294 
L 495.006416 233.71825 
L 496.144643 232.560648 
L 497.28287 231.371798 
L 498.421097 230.149859 
L 499.559324 228.892821 
L 500.697551 227.598484 
L 501.835778 226.264434 
L 502.974004 224.888013 
L 504.112231 223.466286 
L 505.250458 221.996 
L 506.388685 220.473535 
L 507.526912 218.89485 
L 508.665139 217.255414 
L 509.803366 215.55012 
L 510.941592 213.773185 
L 512.079819 211.918024 
L 513.218046 209.977098 
L 514.356273 207.941714 
L 515.4945 205.801778 
L 516.632727 203.545478 
L 517.770954 201.158868 
L 518.90918 198.625319 
L 520.047407 195.924781 
L 521.185634 193.032773 
L 522.323861 189.918969 
L 523.462088 186.545171 
L 524.600315 182.862312 
L 525.738542 178.805889 
L 526.876768 174.288697 
L 528.014995 169.188707 
L 529.153222 163.327581 
L 530.291449 156.429484 
L 531.429676 148.033553 
L 532.567903 137.278542 
L 533.70613 122.238435 
L 534.844357 96.800678 
L 535.982583 -2884.840381 
L 535.982583 10.8 
L 535.982583 10.8 
L 534.844357 10.8 
L 533.70613 10.8 
L 532.567903 10.8 
L 531.429676 10.8 
L 530.291449 10.8 
L 529.153222 10.8 
L 528.014995 10.8 
L 526.876768 10.8 
L 525.738542 10.8 
L 524.600315 10.8 
L 523.462088 10.8 
L 522.323861 10.8 
L 521.185634 10.8 
L 520.047407 10.8 
L 518.90918 10.8 
L 517.770954 10.8 
L 516.632727 10.8 
L 515.4945 10.8 
L 514.356273 10.8 
L 513.218046 10.8 
L 512.079819 10.8 
L 510.941592 10.8 
L 509.803366 10.8 
L 508.665139 10.8 
L 507.526912 10.8 
L 506.388685 10.8 
L 505.250458 10.8 
L 504.112231 10.8 
L 502.974004 10.8 
L 501.835778 10.8 
L 500.697551 10.8 
L 499.559324 10.8 
L 498.421097 10.8 
L 497.28287 10.8 
L 496.144643 10.8 
L 495.006416 10.8 
L 493.868189 10.8 
L 492.729963 10.8 
L 491.591736 10.8 
L 490.453509 10.8 
L 489.315282 10.8 
L 488.177055 10.8 
L 487.038828 10.8 
L 485.900601 10.8 
L 484.762375 10.8 
L 483.624148 10.8 
L 482.485921 10.8 
L 481.347694 10.8 
L 480.209467 10.8 
L 479.07124 10.8 
L 477.933013 10.8 
L 476.794787 10.8 
L 475.65656 10.8 
L 474.518333 10.8 
L 473.380106 10.8 
L 472.241879 10.8 
L 471.103652 10.8 
L 469.965425 10.8 
L 468.827199 10.8 
L 467.688972 10.8 
L 466.550745 10.8 
L 465.412518 10.8 
L 464.274291 10.8 
L 463.136064 10.8 
L 461.997837 10.8 
L 460.85961 10.8 
L 459.721384 10.8 
L 458.583157 10.8 
L 457.44493 10.8 
L 456.306703 10.8 
L 455.168476 10.8 
L 454.030249 10.8 
L 452.892022 10.8 
L 451.753796 10.8 
L 450.615569 10.8 
L 449.477342 10.8 
L 448.339115 10.8 
L 447.200888 10.8 
L 446.062661 10.8 
L 444.924434 10.8 
L 443.786208 10.8 
L 442.647981 10.8 
L 441.509754 10.8 
L 440.371527 10.8 
L 439.2333 10.8 
L 438.095073 10.8 
L 436.956846 10.8 
L 435.81862 10.8 
L 434.680393 10.8 
L 433.542166 10.8 
L 432.403939 10.8 
L 431.265712 10.8 
L 430.127485 10.8 
L 428.989258 10.8 
L 427.851032 10.8 
L 426.712805 10.8 
L 425.574578 10.8 
L 424.436351 10.8 
L 423.298124 10.8 
L 422.159897 10.8 
L 421.02167 10.8 
L 419.883443 10.8 
L 418.745217 10.8 
L 417.60699 10.8 
L 416.468763 10.8 
L 415.330536 10.8 
L 414.192309 10.8 
L 413.054082 10.8 
L 411.915855 10.8 
L 410.777629 10.8 
L 409.639402 10.8 
L 408.501175 10.8 
L 407.362948 10.8 
L 406.224721 10.8 
L 405.086494 10.8 
L 403.948267 10.8 
L 402.810041 10.8 
L 401.671814 10.8 
L 400.533587 10.8 
L 399.39536 10.8 
L 398.257133 10.8 
L 397.118906 10.8 
L 395.980679 10.8 
L 394.842453 10.8 
L 393.704226 10.8 
L 392.565999 10.8 
L 391.427772 10.8 
L 390.289545 10.8 
L 389.151318 10.8 
L 388.013091 10.8 
L 386.874864 10.8 
L 385.736638 10.8 
L 384.598411 10.8 
L 383.460184 10.8 
L 382.321957 10.8 
L 381.18373 10.8 
L 380.045503 10.8 
L 378.907276 10.8 
L 377.76905 10.8 
L 376.630823 10.8 
L 375.492596 10.8 
L 374.354369 10.8 
L 373.216142 10.8 
L 372.077915 10.8 
L 370.939688 10.8 
L 369.801462 10.8 
L 368.663235 10.8 
L 367.525008 10.8 
L 366.386781 10.8 
L 365.248554 10.8 
L 364.110327 10.8 
L 362.9721 10.8 
L 361.833874 10.8 
L 360.695647 10.8 
L 359.55742 10.8 
L 358.419193 10.8 
L 357.280966 10.8 
L 356.142739 10.8 
L 355.004512 10.8 
L 353.866285 10.8 
L 352.728059 10.8 
L 351.589832 10.8 
L 350.451605 10.8 
L 349.313378 10.8 
L 348.175151 10.8 
L 347.036924 10.8 
L 345.898697 10.8 
L 344.760471 10.8 
L 343.622244 10.8 
L 342.484017 10.8 
L 341.34579 10.8 
L 340.207563 10.8 
L 339.069336 10.8 
L 337.931109 10.8 
L 336.792883 10.8 
L 335.654656 10.8 
L 334.516429 10.8 
L 333.378202 10.8 
L 332.239975 10.8 
L 331.101748 10.8 
L 329.963521 10.8 
L 328.825295 10.8 
L 327.687068 10.8 
L 326.548841 10.8 
L 325.410614 10.8 
L 324.272387 10.8 
L 323.13416 10.8 
L 321.995933 10.8 
L 320.857706 10.8 
L 319.71948 10.8 
L 318.581253 10.8 
L 317.443026 10.8 
L 316.304799 10.8 
L 315.166572 10.8 
L 314.028345 10.8 
L 312.890118 10.8 
L 311.751892 10.8 
L 310.613665 10.8 
L 309.475438 10.8 
L 308.337211 10.8 
L 307.198984 10.8 
L 306.060757 10.8 
L 304.92253 10.8 
L 303.784304 10.8 
L 302.646077 10.8 
L 301.50785 10.8 
L 300.369623 10.8 
L 299.231396 10.8 
L 298.093169 10.8 
L 296.954942 10.8 
L 295.816716 10.8 
L 294.678489 10.8 
L 293.540262 10.8 
L 292.402035 10.8 
L 291.263808 10.8 
L 290.125581 10.8 
L 288.987354 10.8 
L 287.849128 10.8 
L 286.710901 10.8 
L 285.572674 10.8 
L 284.434447 10.8 
L 283.29622 10.8 
L 282.157993 10.8 
L 281.019766 10.8 
L 279.881539 10.8 
L 278.743313 10.8 
L 277.605086 10.8 
L 276.466859 10.8 
L 275.328632 10.8 
L 274.190405 10.8 
L 273.052178 10.8 
L 271.913951 10.8 
L 270.775725 10.8 
L 269.637498 10.8 
L 268.499271 10.8 
L 267.361044 10.8 
L 266.222817 10.8 
L 265.08459 10.8 
L 263.946363 10.8 
L 262.808137 10.8 
L 261.66991 10.8 
L 260.531683 10.8 
L 259.393456 10.8 
L 258.255229 10.8 
L 257.117002 10.8 
L 255.978775 10.8 
L 254.840549 10.8 
L 253.702322 10.8 
L 252.564095 10.8 
L 251.425868 10.8 
L 250.287641 10.8 
L 249.149414 10.8 
L 248.011187 10.8 
L 246.87296 10.8 
L 245.734734 10.8 
L 244.596507 10.8 
L 243.45828 10.8 
L 242.320053 10.8 
L 241.181826 10.8 
L 240.043599 10.8 
L 238.905372 10.8 
L 237.767146 10.8 
L 236.628919 10.8 
L 235.490692 10.8 
L 234.352465 10.8 
L 233.214238 10.8 
L 232.076011 10.8 
L 230.937784 10.8 
L 229.799558 10.8 
L 228.661331 10.8 
L 227.523104 10.8 
L 226.384877 10.8 
L 225.24665 10.8 
L 224.108423 10.8 
L 222.970196 10.8 
L 221.83197 10.8 
L 220.693743 10.8 
L 219.555516 10.8 
L 218.417289 10.8 
L 217.279062 10.8 
L 216.140835 10.8 
L 215.002608 10.8 
L 213.864381 10.8 
L 212.726155 10.8 
L 211.587928 10.8 
L 210.449701 10.8 
L 209.311474 10.8 
L 208.173247 10.8 
L 207.03502 10.8 
L 205.896793 10.8 
L 204.758567 10.8 
L 203.62034 10.8 
L 202.482113 10.8 
L 201.343886 10.8 
L 200.205659 10.8 
L 199.067432 10.8 
L 197.929205 10.8 
L 196.790979 10.8 
L 195.652752 10.8 
L 194.514525 10.8 
L 193.376298 10.8 
L 192.238071 10.8 
L 191.099844 10.8 
L 189.961617 10.8 
L 188.823391 10.8 
L 187.685164 10.8 
L 186.546937 10.8 
L 185.40871 10.8 
L 184.270483 10.8 
L 183.132256 10.8 
L 181.994029 10.8 
L 180.855802 10.8 
L 179.717576 10.8 
L 178.579349 10.8 
L 177.441122 10.8 
L 176.302895 10.8 
L 175.164668 10.8 
L 174.026441 10.8 
L 172.888214 10.8 
L 171.749988 10.8 
L 170.611761 10.8 
L 169.473534 10.8 
L 168.335307 10.8 
L 167.19708 10.8 
L 166.058853 10.8 
L 164.920626 10.8 
L 163.7824 10.8 
L 162.644173 10.8 
L 161.505946 10.8 
L 160.367719 10.8 
L 159.229492 10.8 
L 158.091265 10.8 
L 156.953038 10.8 
L 155.814812 10.8 
L 154.676585 10.8 
L 153.538358 10.8 
L 152.400131 10.8 
L 151.261904 10.8 
L 150.123677 10.8 
L 148.98545 10.8 
L 147.847224 10.8 
L 146.708997 10.8 
L 145.57077 10.8 
L 144.432543 10.8 
L 143.294316 10.8 
L 142.156089 10.8 
L 141.017862 10.8 
L 139.879635 10.8 
L 138.741409 10.8 
L 137.603182 10.8 
L 136.464955 10.8 
L 135.326728 10.8 
L 134.188501 10.8 
L 133.050274 10.8 
L 131.912047 10.8 
L 130.773821 10.8 
L 129.635594 10.8 
L 128.497367 10.8 
L 127.35914 10.8 
L 126.220913 10.8 
L 125.082686 10.8 
L 123.944459 10.8 
L 122.806233 10.8 
L 121.668006 10.8 
L 120.529779 10.8 
L 119.391552 10.8 
L 118.253325 10.8 
L 117.115098 10.8 
L 115.976871 10.8 
L 114.838645 10.8 
L 113.700418 10.8 
L 112.562191 10.8 
L 111.423964 10.8 
L 110.285737 10.8 
L 109.14751 10.8 
L 108.009283 10.8 
L 106.871056 10.8 
L 105.73283 10.8 
L 104.594603 10.8 
L 103.456376 10.8 
L 102.318149 10.8 
L 101.179922 10.8 
L 100.041695 10.8 
L 98.903468 10.8 
L 97.765242 10.8 
L 96.627015 10.8 
L 95.488788 10.8 
L 94.350561 10.8 
L 93.212334 10.8 
L 92.074107 10.8 
L 90.93588 10.8 
L 89.797654 10.8 
L 88.659427 10.8 
L 87.5212 10.8 
L 86.382973 10.8 
L 85.244746 10.8 
L 84.106519 10.8 
L 82.968292 10.8 
L 81.830066 10.8 
z
" clip-path="url(#p4d4dd3b9fe)" style="fill: #808080; fill-opacity: 0.5; stroke: #808080; stroke-opacity: 0.5"/>
   </g>
   <g id="matplotlib.axis_1">
    <g id="xtick_1">
     <g id="line2d_1">
      <path d="M 81.83 350.512 
L 81.83 10.8 
" clip-path="url(#p4d4dd3b9fe)" style="fill: none; stroke-dasharray: 7.4,3.2; stroke-dashoffset: 0; stroke: #000000; stroke-opacity: 0.3; stroke-width: 2"/>
     </g>
     <g id="line2d_2">
      <defs>
       <path id="m419f1538b0" d="M 0 0 
L 0 3.5 
" style="stroke: #000000; stroke-width: 0.8"/>
      </defs>
      <g>
       <use xlink:href="#m419f1538b0" x="81.83" y="350.512" style="stroke: #000000; stroke-width: 0.8"/>
      </g>
     </g>
     <g id="text_1">
      <!-- 0 -->
      <g transform="translate(75.4675 372.708875) scale(0.2 -0.2)">
       <defs>
        <path id="DejaVuSans-30" d="M 2034 4250 
Q 1547 4250 1301 3770 
Q 1056 3291 1056 2328 
Q 1056 1369 1301 889 
Q 1547 409 2034 409 
Q 2525 409 2770 889 
Q 3016 1369 3016 2328 
Q 3016 3291 2770 3770 
Q 2525 4250 2034 4250 
z
M 2034 4750 
Q 2819 4750 3233 4129 
Q 3647 3509 3647 2328 
Q 3647 1150 3233 529 
Q 2819 -91 2034 -91 
Q 1250 -91 836 529 
Q 422 1150 422 2328 
Q 422 3509 836 4129 
Q 1250 4750 2034 4750 
z
" transform="scale(0.015625)"/>
       </defs>
       <use xlink:href="#DejaVuSans-30"/>
      </g>
     </g>
    </g>
    <g id="xtick_2">
     <g id="line2d_3">
      <path d="M 147.350368 350.512 
L 147.350368 10.8 
" clip-path="url(#p4d4dd3b9fe)" style="fill: none; stroke-dasharray: 7.4,3.2; stroke-dashoffset: 0; stroke: #000000; stroke-opacity: 0.3; stroke-width: 2"/>
     </g>
     <g id="line2d_4">
      <g>
       <use xlink:href="#m419f1538b0" x="147.350368" y="350.512" style="stroke: #000000; stroke-width: 0.8"/>
      </g>
     </g>
     <g id="text_2">
      <!-- 0.1 -->
      <g transform="translate(131.447243 372.708875) scale(0.2 -0.2)">
       <defs>
        <path id="DejaVuSans-2e" d="M 684 794 
L 1344 794 
L 1344 0 
L 684 0 
L 684 794 
z
" transform="scale(0.015625)"/>
        <path id="DejaVuSans-31" d="M 794 531 
L 1825 531 
L 1825 4091 
L 703 3866 
L 703 4441 
L 1819 4666 
L 2450 4666 
L 2450 531 
L 3481 531 
L 3481 0 
L 794 0 
L 794 531 
z
" transform="scale(0.015625)"/>
       </defs>
       <use xlink:href="#DejaVuSans-30"/>
       <use xlink:href="#DejaVuSans-2e" x="63.623047"/>
       <use xlink:href="#DejaVuSans-31" x="95.410156"/>
      </g>
     </g>
    </g>
    <g id="xtick_3">
     <g id="line2d_5">
      <path d="M 212.870736 350.512 
L 212.870736 10.8 
" clip-path="url(#p4d4dd3b9fe)" style="fill: none; stroke-dasharray: 7.4,3.2; stroke-dashoffset: 0; stroke: #000000; stroke-opacity: 0.3; stroke-width: 2"/>
     </g>
     <g id="line2d_6">
      <g>
       <use xlink:href="#m419f1538b0" x="212.870736" y="350.512" style="stroke: #000000; stroke-width: 0.8"/>
      </g>
     </g>
     <g id="text_3">
      <!-- 0.2 -->
      <g transform="translate(196.967611 372.708875) scale(0.2 -0.2)">
       <defs>
        <path id="DejaVuSans-32" d="M 1228 531 
L 3431 531 
L 3431 0 
L 469 0 
L 469 531 
Q 828 903 1448 1529 
Q 2069 2156 2228 2338 
Q 2531 2678 2651 2914 
Q 2772 3150 2772 3378 
Q 2772 3750 2511 3984 
Q 2250 4219 1831 4219 
Q 1534 4219 1204 4116 
Q 875 4013 500 3803 
L 500 4441 
Q 881 4594 1212 4672 
Q 1544 4750 1819 4750 
Q 2544 4750 2975 4387 
Q 3406 4025 3406 3419 
Q 3406 3131 3298 2873 
Q 3191 2616 2906 2266 
Q 2828 2175 2409 1742 
Q 1991 1309 1228 531 
z
" transform="scale(0.015625)"/>
       </defs>
       <use xlink:href="#DejaVuSans-30"/>
       <use xlink:href="#DejaVuSans-2e" x="63.623047"/>
       <use xlink:href="#DejaVuSans-32" x="95.410156"/>
      </g>
     </g>
    </g>
    <g id="xtick_4">
     <g id="line2d_7">
      <path d="M 278.391104 350.512 
L 278.391104 10.8 
" clip-path="url(#p4d4dd3b9fe)" style="fill: none; stroke-dasharray: 7.4,3.2; stroke-dashoffset: 0; stroke: #000000; stroke-opacity: 0.3; stroke-width: 2"/>
     </g>
     <g id="line2d_8">
      <g>
       <use xlink:href="#m419f1538b0" x="278.391104" y="350.512" style="stroke: #000000; stroke-width: 0.8"/>
      </g>
     </g>
     <g id="text_4">
      <!-- 0.3 -->
      <g transform="translate(262.487979 372.708875) scale(0.2 -0.2)">
       <defs>
        <path id="DejaVuSans-33" d="M 2597 2516 
Q 3050 2419 3304 2112 
Q 3559 1806 3559 1356 
Q 3559 666 3084 287 
Q 2609 -91 1734 -91 
Q 1441 -91 1130 -33 
Q 819 25 488 141 
L 488 750 
Q 750 597 1062 519 
Q 1375 441 1716 441 
Q 2309 441 2620 675 
Q 2931 909 2931 1356 
Q 2931 1769 2642 2001 
Q 2353 2234 1838 2234 
L 1294 2234 
L 1294 2753 
L 1863 2753 
Q 2328 2753 2575 2939 
Q 2822 3125 2822 3475 
Q 2822 3834 2567 4026 
Q 2313 4219 1838 4219 
Q 1578 4219 1281 4162 
Q 984 4106 628 3988 
L 628 4550 
Q 988 4650 1302 4700 
Q 1616 4750 1894 4750 
Q 2613 4750 3031 4423 
Q 3450 4097 3450 3541 
Q 3450 3153 3228 2886 
Q 3006 2619 2597 2516 
z
" transform="scale(0.015625)"/>
       </defs>
       <use xlink:href="#DejaVuSans-30"/>
       <use xlink:href="#DejaVuSans-2e" x="63.623047"/>
       <use xlink:href="#DejaVuSans-33" x="95.410156"/>
      </g>
     </g>
    </g>
    <g id="xtick_5">
     <g id="line2d_9">
      <path d="M 343.911472 350.512 
L 343.911472 10.8 
" clip-path="url(#p4d4dd3b9fe)" style="fill: none; stroke-dasharray: 7.4,3.2; stroke-dashoffset: 0; stroke: #000000; stroke-opacity: 0.3; stroke-width: 2"/>
     </g>
     <g id="line2d_10">
      <g>
       <use xlink:href="#m419f1538b0" x="343.911472" y="350.512" style="stroke: #000000; stroke-width: 0.8"/>
      </g>
     </g>
     <g id="text_5">
      <!-- 0.4 -->
      <g transform="translate(328.008347 372.708875) scale(0.2 -0.2)">
       <defs>
        <path id="DejaVuSans-34" d="M 2419 4116 
L 825 1625 
L 2419 1625 
L 2419 4116 
z
M 2253 4666 
L 3047 4666 
L 3047 1625 
L 3713 1625 
L 3713 1100 
L 3047 1100 
L 3047 0 
L 2419 0 
L 2419 1100 
L 313 1100 
L 313 1709 
L 2253 4666 
z
" transform="scale(0.015625)"/>
       </defs>
       <use xlink:href="#DejaVuSans-30"/>
       <use xlink:href="#DejaVuSans-2e" x="63.623047"/>
       <use xlink:href="#DejaVuSans-34" x="95.410156"/>
      </g>
     </g>
    </g>
    <g id="xtick_6">
     <g id="line2d_11">
      <path d="M 409.43184 350.512 
L 409.43184 10.8 
" clip-path="url(#p4d4dd3b9fe)" style="fill: none; stroke-dasharray: 7.4,3.2; stroke-dashoffset: 0; stroke: #000000; stroke-opacity: 0.3; stroke-width: 2"/>
     </g>
     <g id="line2d_12">
      <g>
       <use xlink:href="#m419f1538b0" x="409.43184" y="350.512" style="stroke: #000000; stroke-width: 0.8"/>
      </g>
     </g>
     <g id="text_6">
      <!-- 0.5 -->
      <g transform="translate(393.528715 372.708875) scale(0.2 -0.2)">
       <defs>
        <path id="DejaVuSans-35" d="M 691 4666 
L 3169 4666 
L 3169 4134 
L 1269 4134 
L 1269 2991 
Q 1406 3038 1543 3061 
Q 1681 3084 1819 3084 
Q 2600 3084 3056 2656 
Q 3513 2228 3513 1497 
Q 3513 744 3044 326 
Q 2575 -91 1722 -91 
Q 1428 -91 1123 -41 
Q 819 9 494 109 
L 494 744 
Q 775 591 1075 516 
Q 1375 441 1709 441 
Q 2250 441 2565 725 
Q 2881 1009 2881 1497 
Q 2881 1984 2565 2268 
Q 2250 2553 1709 2553 
Q 1456 2553 1204 2497 
Q 953 2441 691 2322 
L 691 4666 
z
" transform="scale(0.015625)"/>
       </defs>
       <use xlink:href="#DejaVuSans-30"/>
       <use xlink:href="#DejaVuSans-2e" x="63.623047"/>
       <use xlink:href="#DejaVuSans-35" x="95.410156"/>
      </g>
     </g>
    </g>
    <g id="xtick_7">
     <g id="line2d_13">
      <path d="M 474.952208 350.512 
L 474.952208 10.8 
" clip-path="url(#p4d4dd3b9fe)" style="fill: none; stroke-dasharray: 7.4,3.2; stroke-dashoffset: 0; stroke: #000000; stroke-opacity: 0.3; stroke-width: 2"/>
     </g>
     <g id="line2d_14">
      <g>
       <use xlink:href="#m419f1538b0" x="474.952208" y="350.512" style="stroke: #000000; stroke-width: 0.8"/>
      </g>
     </g>
     <g id="text_7">
      <!-- 0.6 -->
      <g transform="translate(459.049083 372.708875) scale(0.2 -0.2)">
       <defs>
        <path id="DejaVuSans-36" d="M 2113 2584 
Q 1688 2584 1439 2293 
Q 1191 2003 1191 1497 
Q 1191 994 1439 701 
Q 1688 409 2113 409 
Q 2538 409 2786 701 
Q 3034 994 3034 1497 
Q 3034 2003 2786 2293 
Q 2538 2584 2113 2584 
z
M 3366 4563 
L 3366 3988 
Q 3128 4100 2886 4159 
Q 2644 4219 2406 4219 
Q 1781 4219 1451 3797 
Q 1122 3375 1075 2522 
Q 1259 2794 1537 2939 
Q 1816 3084 2150 3084 
Q 2853 3084 3261 2657 
Q 3669 2231 3669 1497 
Q 3669 778 3244 343 
Q 2819 -91 2113 -91 
Q 1303 -91 875 529 
Q 447 1150 447 2328 
Q 447 3434 972 4092 
Q 1497 4750 2381 4750 
Q 2619 4750 2861 4703 
Q 3103 4656 3366 4563 
z
" transform="scale(0.015625)"/>
       </defs>
       <use xlink:href="#DejaVuSans-30"/>
       <use xlink:href="#DejaVuSans-2e" x="63.623047"/>
       <use xlink:href="#DejaVuSans-36" x="95.410156"/>
      </g>
     </g>
    </g>
    <g id="xtick_8">
     <g id="line2d_15">
      <path d="M 535.982583 350.512 
L 535.982583 10.8 
" clip-path="url(#p4d4dd3b9fe)" style="fill: none; stroke-dasharray: 7.4,3.2; stroke-dashoffset: 0; stroke: #000000; stroke-opacity: 0.3; stroke-width: 2"/>
     </g>
     <g id="line2d_16">
      <g>
       <use xlink:href="#m419f1538b0" x="535.982583" y="350.512" style="stroke: #000000; stroke-width: 0.8"/>
      </g>
     </g>
     <g id="text_8">
      <!-- $\log(2)$ -->
      <g transform="translate(506.482583 372.712) scale(0.2 -0.2)">
       <defs>
        <path id="DejaVuSans-6c" d="M 603 4863 
L 1178 4863 
L 1178 0 
L 603 0 
L 603 4863 
z
" transform="scale(0.015625)"/>
        <path id="DejaVuSans-6f" d="M 1959 3097 
Q 1497 3097 1228 2736 
Q 959 2375 959 1747 
Q 959 1119 1226 758 
Q 1494 397 1959 397 
Q 2419 397 2687 759 
Q 2956 1122 2956 1747 
Q 2956 2369 2687 2733 
Q 2419 3097 1959 3097 
z
M 1959 3584 
Q 2709 3584 3137 3096 
Q 3566 2609 3566 1747 
Q 3566 888 3137 398 
Q 2709 -91 1959 -91 
Q 1206 -91 779 398 
Q 353 888 353 1747 
Q 353 2609 779 3096 
Q 1206 3584 1959 3584 
z
" transform="scale(0.015625)"/>
        <path id="DejaVuSans-67" d="M 2906 1791 
Q 2906 2416 2648 2759 
Q 2391 3103 1925 3103 
Q 1463 3103 1205 2759 
Q 947 2416 947 1791 
Q 947 1169 1205 825 
Q 1463 481 1925 481 
Q 2391 481 2648 825 
Q 2906 1169 2906 1791 
z
M 3481 434 
Q 3481 -459 3084 -895 
Q 2688 -1331 1869 -1331 
Q 1566 -1331 1297 -1286 
Q 1028 -1241 775 -1147 
L 775 -588 
Q 1028 -725 1275 -790 
Q 1522 -856 1778 -856 
Q 2344 -856 2625 -561 
Q 2906 -266 2906 331 
L 2906 616 
Q 2728 306 2450 153 
Q 2172 0 1784 0 
Q 1141 0 747 490 
Q 353 981 353 1791 
Q 353 2603 747 3093 
Q 1141 3584 1784 3584 
Q 2172 3584 2450 3431 
Q 2728 3278 2906 2969 
L 2906 3500 
L 3481 3500 
L 3481 434 
z
" transform="scale(0.015625)"/>
        <path id="DejaVuSans-28" d="M 1984 4856 
Q 1566 4138 1362 3434 
Q 1159 2731 1159 2009 
Q 1159 1288 1364 580 
Q 1569 -128 1984 -844 
L 1484 -844 
Q 1016 -109 783 600 
Q 550 1309 550 2009 
Q 550 2706 781 3412 
Q 1013 4119 1484 4856 
L 1984 4856 
z
" transform="scale(0.015625)"/>
        <path id="DejaVuSans-29" d="M 513 4856 
L 1013 4856 
Q 1481 4119 1714 3412 
Q 1947 2706 1947 2009 
Q 1947 1309 1714 600 
Q 1481 -109 1013 -844 
L 513 -844 
Q 928 -128 1133 580 
Q 1338 1288 1338 2009 
Q 1338 2731 1133 3434 
Q 928 4138 513 4856 
z
" transform="scale(0.015625)"/>
       </defs>
       <use xlink:href="#DejaVuSans-6c" transform="translate(0 0.015625)"/>
       <use xlink:href="#DejaVuSans-6f" transform="translate(27.783203 0.015625)"/>
       <use xlink:href="#DejaVuSans-67" transform="translate(88.964844 0.015625)"/>
       <use xlink:href="#DejaVuSans-28" transform="translate(152.441406 0.015625)"/>
       <use xlink:href="#DejaVuSans-32" transform="translate(191.455078 0.015625)"/>
       <use xlink:href="#DejaVuSans-29" transform="translate(255.078125 0.015625)"/>
      </g>
     </g>
    </g>
    <g id="text_9">
     <!-- ${\rm D_{JS}}[p \;||\; q]$ -->
     <g style="fill: #7030a0" transform="translate(233.229568 405.552) scale(0.32 -0.32)">
      <defs>
       <path id="DejaVuSans-44" d="M 1259 4147 
L 1259 519 
L 2022 519 
Q 2988 519 3436 956 
Q 3884 1394 3884 2338 
Q 3884 3275 3436 3711 
Q 2988 4147 2022 4147 
L 1259 4147 
z
M 628 4666 
L 1925 4666 
Q 3281 4666 3915 4102 
Q 4550 3538 4550 2338 
Q 4550 1131 3912 565 
Q 3275 0 1925 0 
L 628 0 
L 628 4666 
z
" transform="scale(0.015625)"/>
       <path id="DejaVuSans-4a" d="M 628 4666 
L 1259 4666 
L 1259 325 
Q 1259 -519 939 -900 
Q 619 -1281 -91 -1281 
L -331 -1281 
L -331 -750 
L -134 -750 
Q 284 -750 456 -515 
Q 628 -281 628 325 
L 628 4666 
z
" transform="scale(0.015625)"/>
       <path id="DejaVuSans-53" d="M 3425 4513 
L 3425 3897 
Q 3066 4069 2747 4153 
Q 2428 4238 2131 4238 
Q 1616 4238 1336 4038 
Q 1056 3838 1056 3469 
Q 1056 3159 1242 3001 
Q 1428 2844 1947 2747 
L 2328 2669 
Q 3034 2534 3370 2195 
Q 3706 1856 3706 1288 
Q 3706 609 3251 259 
Q 2797 -91 1919 -91 
Q 1588 -91 1214 -16 
Q 841 59 441 206 
L 441 856 
Q 825 641 1194 531 
Q 1563 422 1919 422 
Q 2459 422 2753 634 
Q 3047 847 3047 1241 
Q 3047 1584 2836 1778 
Q 2625 1972 2144 2069 
L 1759 2144 
Q 1053 2284 737 2584 
Q 422 2884 422 3419 
Q 422 4038 858 4394 
Q 1294 4750 2059 4750 
Q 2388 4750 2728 4690 
Q 3069 4631 3425 4513 
z
" transform="scale(0.015625)"/>
       <path id="DejaVuSans-5b" d="M 550 4863 
L 1875 4863 
L 1875 4416 
L 1125 4416 
L 1125 -397 
L 1875 -397 
L 1875 -844 
L 550 -844 
L 550 4863 
z
" transform="scale(0.015625)"/>
       <path id="DejaVuSans-Oblique-70" d="M 3175 2156 
Q 3175 2616 2975 2859 
Q 2775 3103 2400 3103 
Q 2144 3103 1911 2972 
Q 1678 2841 1497 2591 
Q 1319 2344 1212 1994 
Q 1106 1644 1106 1300 
Q 1106 863 1306 627 
Q 1506 391 1875 391 
Q 2147 391 2380 519 
Q 2613 647 2778 891 
Q 2956 1147 3065 1494 
Q 3175 1841 3175 2156 
z
M 1394 2969 
Q 1625 3272 1939 3428 
Q 2253 3584 2638 3584 
Q 3175 3584 3472 3232 
Q 3769 2881 3769 2247 
Q 3769 1728 3584 1258 
Q 3400 788 3053 416 
Q 2822 169 2531 39 
Q 2241 -91 1919 -91 
Q 1547 -91 1294 64 
Q 1041 219 916 525 
L 556 -1331 
L -19 -1331 
L 922 3500 
L 1497 3500 
L 1394 2969 
z
" transform="scale(0.015625)"/>
       <path id="DejaVuSans-7c" d="M 1344 4891 
L 1344 -1509 
L 813 -1509 
L 813 4891 
L 1344 4891 
z
" transform="scale(0.015625)"/>
       <path id="DejaVuSans-Oblique-71" d="M 2669 525 
Q 2438 222 2123 65 
Q 1809 -91 1428 -91 
Q 897 -91 595 267 
Q 294 625 294 1253 
Q 294 1759 480 2231 
Q 666 2703 1013 3078 
Q 1238 3322 1530 3453 
Q 1822 3584 2144 3584 
Q 2531 3584 2781 3431 
Q 3031 3278 3144 2969 
L 3244 3494 
L 3822 3494 
L 2888 -1319 
L 2309 -1319 
L 2669 525 
z
M 891 1338 
Q 891 875 1084 633 
Q 1278 391 1644 391 
Q 2188 391 2572 911 
Q 2956 1431 2956 2175 
Q 2956 2625 2757 2864 
Q 2559 3103 2188 3103 
Q 1916 3103 1684 2976 
Q 1453 2850 1281 2606 
Q 1100 2350 995 2006 
Q 891 1663 891 1338 
z
" transform="scale(0.015625)"/>
       <path id="DejaVuSans-5d" d="M 1947 4863 
L 1947 -844 
L 622 -844 
L 622 -397 
L 1369 -397 
L 1369 4416 
L 622 4416 
L 622 4863 
L 1947 4863 
z
" transform="scale(0.015625)"/>
      </defs>
      <use xlink:href="#DejaVuSans-44" transform="translate(0 0.578125)"/>
      <use xlink:href="#DejaVuSans-4a" transform="translate(77.958984 -15.828125) scale(0.7)"/>
      <use xlink:href="#DejaVuSans-53" transform="translate(98.603516 -15.828125) scale(0.7)"/>
      <use xlink:href="#DejaVuSans-5b" transform="translate(145.771484 0.578125)"/>
      <use xlink:href="#DejaVuSans-Oblique-70" transform="translate(184.785156 0.578125)"/>
      <use xlink:href="#DejaVuSans-7c" transform="translate(275.320854 0.578125)"/>
      <use xlink:href="#DejaVuSans-7c" transform="translate(309.012261 0.578125)"/>
      <use xlink:href="#DejaVuSans-Oblique-71" transform="translate(369.762803 0.578125)"/>
      <use xlink:href="#DejaVuSans-5d" transform="translate(433.239365 0.578125)"/>
     </g>
    </g>
   </g>
   <g id="matplotlib.axis_2">
    <g id="ytick_1">
     <g id="line2d_17">
      <path d="M 81.83 350.512 
L 535.989135 350.512 
" clip-path="url(#p4d4dd3b9fe)" style="fill: none; stroke-dasharray: 7.4,3.2; stroke-dashoffset: 0; stroke: #000000; stroke-opacity: 0.3; stroke-width: 2"/>
     </g>
     <g id="line2d_18">
      <defs>
       <path id="m1d8f8747d4" d="M 0 0 
L -3.5 0 
" style="stroke: #000000; stroke-width: 0.8"/>
      </defs>
      <g>
       <use xlink:href="#m1d8f8747d4" x="81.83" y="350.512" style="stroke: #000000; stroke-width: 0.8"/>
      </g>
     </g>
     <g id="text_10">
      <!-- 0 -->
      <g transform="translate(62.105 358.110437) scale(0.2 -0.2)">
       <use xlink:href="#DejaVuSans-30"/>
      </g>
     </g>
    </g>
    <g id="ytick_2">
     <g id="line2d_19">
      <path d="M 81.83 285.804952 
L 535.989135 285.804952 
" clip-path="url(#p4d4dd3b9fe)" style="fill: none; stroke-dasharray: 7.4,3.2; stroke-dashoffset: 0; stroke: #000000; stroke-opacity: 0.3; stroke-width: 2"/>
     </g>
     <g id="line2d_20">
      <g>
       <use xlink:href="#m1d8f8747d4" x="81.83" y="285.804952" style="stroke: #000000; stroke-width: 0.8"/>
      </g>
     </g>
     <g id="text_11">
      <!-- 2 -->
      <g transform="translate(62.105 293.40339) scale(0.2 -0.2)">
       <use xlink:href="#DejaVuSans-32"/>
      </g>
     </g>
    </g>
    <g id="ytick_3">
     <g id="line2d_21">
      <path d="M 81.83 221.097905 
L 535.989135 221.097905 
" clip-path="url(#p4d4dd3b9fe)" style="fill: none; stroke-dasharray: 7.4,3.2; stroke-dashoffset: 0; stroke: #000000; stroke-opacity: 0.3; stroke-width: 2"/>
     </g>
     <g id="line2d_22">
      <g>
       <use xlink:href="#m1d8f8747d4" x="81.83" y="221.097905" style="stroke: #000000; stroke-width: 0.8"/>
      </g>
     </g>
     <g id="text_12">
      <!-- 4 -->
      <g transform="translate(62.105 228.696342) scale(0.2 -0.2)">
       <use xlink:href="#DejaVuSans-34"/>
      </g>
     </g>
    </g>
    <g id="ytick_4">
     <g id="line2d_23">
      <path d="M 81.83 156.390857 
L 535.989135 156.390857 
" clip-path="url(#p4d4dd3b9fe)" style="fill: none; stroke-dasharray: 7.4,3.2; stroke-dashoffset: 0; stroke: #000000; stroke-opacity: 0.3; stroke-width: 2"/>
     </g>
     <g id="line2d_24">
      <g>
       <use xlink:href="#m1d8f8747d4" x="81.83" y="156.390857" style="stroke: #000000; stroke-width: 0.8"/>
      </g>
     </g>
     <g id="text_13">
      <!-- 6 -->
      <g transform="translate(62.105 163.989295) scale(0.2 -0.2)">
       <use xlink:href="#DejaVuSans-36"/>
      </g>
     </g>
    </g>
    <g id="ytick_5">
     <g id="line2d_25">
      <path d="M 81.83 91.68381 
L 535.989135 91.68381 
" clip-path="url(#p4d4dd3b9fe)" style="fill: none; stroke-dasharray: 7.4,3.2; stroke-dashoffset: 0; stroke: #000000; stroke-opacity: 0.3; stroke-width: 2"/>
     </g>
     <g id="line2d_26">
      <g>
       <use xlink:href="#m1d8f8747d4" x="81.83" y="91.68381" style="stroke: #000000; stroke-width: 0.8"/>
      </g>
     </g>
     <g id="text_14">
      <!-- 8 -->
      <g transform="translate(62.105 99.282247) scale(0.2 -0.2)">
       <defs>
        <path id="DejaVuSans-38" d="M 2034 2216 
Q 1584 2216 1326 1975 
Q 1069 1734 1069 1313 
Q 1069 891 1326 650 
Q 1584 409 2034 409 
Q 2484 409 2743 651 
Q 3003 894 3003 1313 
Q 3003 1734 2745 1975 
Q 2488 2216 2034 2216 
z
M 1403 2484 
Q 997 2584 770 2862 
Q 544 3141 544 3541 
Q 544 4100 942 4425 
Q 1341 4750 2034 4750 
Q 2731 4750 3128 4425 
Q 3525 4100 3525 3541 
Q 3525 3141 3298 2862 
Q 3072 2584 2669 2484 
Q 3125 2378 3379 2068 
Q 3634 1759 3634 1313 
Q 3634 634 3220 271 
Q 2806 -91 2034 -91 
Q 1263 -91 848 271 
Q 434 634 434 1313 
Q 434 1759 690 2068 
Q 947 2378 1403 2484 
z
M 1172 3481 
Q 1172 3119 1398 2916 
Q 1625 2713 2034 2713 
Q 2441 2713 2670 2916 
Q 2900 3119 2900 3481 
Q 2900 3844 2670 4047 
Q 2441 4250 2034 4250 
Q 1625 4250 1398 4047 
Q 1172 3844 1172 3481 
z
" transform="scale(0.015625)"/>
       </defs>
       <use xlink:href="#DejaVuSans-38"/>
      </g>
     </g>
    </g>
    <g id="ytick_6">
     <g id="line2d_27">
      <path d="M 81.83 26.976762 
L 535.989135 26.976762 
" clip-path="url(#p4d4dd3b9fe)" style="fill: none; stroke-dasharray: 7.4,3.2; stroke-dashoffset: 0; stroke: #000000; stroke-opacity: 0.3; stroke-width: 2"/>
     </g>
     <g id="line2d_28">
      <g>
       <use xlink:href="#m1d8f8747d4" x="81.83" y="26.976762" style="stroke: #000000; stroke-width: 0.8"/>
      </g>
     </g>
     <g id="text_15">
      <!-- 10 -->
      <g transform="translate(49.38 34.575199) scale(0.2 -0.2)">
       <use xlink:href="#DejaVuSans-31"/>
       <use xlink:href="#DejaVuSans-30" x="63.623047"/>
      </g>
     </g>
    </g>
    <g id="text_16">
     <!-- ${\rm D_{KL}}[p \;||\; q]$ -->
     <g style="fill: #196b24" transform="translate(37.7 259.536) rotate(-90) scale(0.32 -0.32)">
      <defs>
       <path id="DejaVuSans-4b" d="M 628 4666 
L 1259 4666 
L 1259 2694 
L 3353 4666 
L 4166 4666 
L 1850 2491 
L 4331 0 
L 3500 0 
L 1259 2247 
L 1259 0 
L 628 0 
L 628 4666 
z
" transform="scale(0.015625)"/>
       <path id="DejaVuSans-4c" d="M 628 4666 
L 1259 4666 
L 1259 531 
L 3531 531 
L 3531 0 
L 628 0 
L 628 4666 
z
" transform="scale(0.015625)"/>
      </defs>
      <use xlink:href="#DejaVuSans-44" transform="translate(0 0.578125)"/>
      <use xlink:href="#DejaVuSans-4b" transform="translate(77.958984 -15.828125) scale(0.7)"/>
      <use xlink:href="#DejaVuSans-4c" transform="translate(123.862305 -15.828125) scale(0.7)"/>
      <use xlink:href="#DejaVuSans-5b" transform="translate(165.595703 0.578125)"/>
      <use xlink:href="#DejaVuSans-Oblique-70" transform="translate(204.609375 0.578125)"/>
      <use xlink:href="#DejaVuSans-7c" transform="translate(295.145073 0.578125)"/>
      <use xlink:href="#DejaVuSans-7c" transform="translate(328.836479 0.578125)"/>
      <use xlink:href="#DejaVuSans-Oblique-71" transform="translate(389.587021 0.578125)"/>
      <use xlink:href="#DejaVuSans-5d" transform="translate(453.063584 0.578125)"/>
     </g>
    </g>
   </g>
   <g id="line2d_29">
    <path d="M 81.830066 350.511991 
L 117.115098 345.369019 
L 148.98545 340.500098 
L 178.579349 335.75244 
L 205.896793 331.140152 
L 230.937784 326.682709 
L 253.702322 322.405673 
L 274.190405 318.341288 
L 293.540262 314.283571 
L 311.751892 310.236957 
L 328.825295 306.208293 
L 343.622244 302.501726 
L 358.419193 298.561539 
L 372.077915 294.68189 
L 384.598411 290.88552 
L 395.980679 287.200888 
L 406.224721 283.662769 
L 416.468763 279.878728 
L 425.574578 276.273561 
L 433.542166 272.900973 
L 441.509754 269.290684 
L 448.339115 265.975839 
L 455.168476 262.423223 
L 461.997837 258.591344 
L 467.688972 255.146699 
L 473.380106 251.431658 
L 477.933013 248.231232 
L 482.485921 244.792384 
L 487.038828 241.073254 
L 491.591736 237.019818 
L 495.006416 233.71825 
L 498.421097 230.149859 
L 501.835778 226.264434 
L 505.250458 221.996 
L 508.665139 217.255414 
L 510.941592 213.773185 
L 513.218046 209.977098 
L 515.4945 205.801778 
L 517.770954 201.158868 
L 520.047407 195.924781 
L 522.323861 189.918969 
L 524.600315 182.862312 
L 525.738542 178.805889 
L 526.876768 174.288697 
L 528.014995 169.188707 
L 529.153222 163.327581 
L 530.291449 156.429484 
L 531.429676 148.033553 
L 532.567903 137.278542 
L 533.70613 122.238435 
L 534.844357 96.800678 
L 534.881691 -1 
L 534.881691 -1 
" clip-path="url(#p4d4dd3b9fe)" style="fill: none; stroke: #d62728; stroke-width: 5; stroke-linecap: square"/>
   </g>
   <g id="patch_3">
    <path d="M 81.83 350.512 
L 81.83 10.8 
" style="fill: none; stroke: #000000; stroke-width: 3; stroke-linejoin: miter; stroke-linecap: square"/>
   </g>
   <g id="patch_4">
    <path d="M 535.989135 350.512 
L 535.989135 10.8 
" style="fill: none; stroke: #000000; stroke-width: 3; stroke-linejoin: miter; stroke-linecap: square"/>
   </g>
   <g id="patch_5">
    <path d="M 81.83 350.512 
L 535.989135 350.512 
" style="fill: none; stroke: #000000; stroke-width: 3; stroke-linejoin: miter; stroke-linecap: square"/>
   </g>
   <g id="patch_6">
    <path d="M 81.83 10.8 
L 535.989135 10.8 
" style="fill: none; stroke: #000000; stroke-width: 3; stroke-linejoin: miter; stroke-linecap: square"/>
   </g>
  </g>
 </g>
 <defs>
  <clipPath id="p4d4dd3b9fe">
   <rect x="81.83" y="10.8" width="454.159135" height="339.712"/>
  </clipPath>
 </defs>
</svg>
